<svg xmlns="http://www.w3.org/2000/svg" viewBox="0 0 800 500">
<defs>
<linearGradient id="bg" x1="0%" y1="0%" x2="100%" y2="100%">
<stop offset="0%" style="stop-color:#0f2027"/>
<stop offset="50%" style="stop-color:#203a43"/>
<stop offset="100%" style="stop-color:#2c5364"/>
</linearGradient>
<linearGradient id="accent" x1="0%" y1="0%" x2="100%" y2="0%">
<stop offset="0%" style="stop-color:#f79711"/>
<stop offset="100%" style="stop-color:#ffed4e"/>
</linearGradient>
</defs>
<rect width="800" height="500" fill="url(#bg)" rx="16"/>
<!-- Warning triangle -->
<polygon points="400,80 480,220 320,220" fill="none" stroke="#f79711" stroke-width="4" opacity="0.9"/>
<text x="400" y="195" text-anchor="middle" font-size="72" fill="#f79711" font-weight="bold">!</text>
<!-- Pigeon silhouette -->
<ellipse cx="400" cy="310" rx="50" ry="38" fill="#c9a84c" opacity="0.85"/>
<ellipse cx="445" cy="295" rx="28" ry="20" fill="#c9a84c" opacity="0.85"/>
<circle cx="462" cy="288" r="5" fill="#0f2027"/>
<path d="M473,293 Q485,298 478,305" fill="#c9a84c" opacity="0.8"/>
<path d="M390,340 Q340,380 310,370 Q330,355 365,345" fill="#c9a84c" opacity="0.7"/>
<path d="M410,340 Q460,380 490,370 Q470,355 435,345" fill="#c9a84c" opacity="0.7"/>
<!-- 7 dots -->
<circle cx="120" cy="130" r="10" fill="#f79711" opacity="0.8"/>
<circle cx="170" cy="90" r="10" fill="#f79711" opacity="0.8"/>
<circle cx="225" cy="70" r="10" fill="#f79711" opacity="0.8"/>
<circle cx="575" cy="130" r="10" fill="#f79711" opacity="0.8"/>
<circle cx="630" cy="90" r="10" fill="#f79711" opacity="0.8"/>
<circle cx="685" cy="70" r="10" fill="#f79711" opacity="0.8"/>
<circle cx="400" cy="430" r="10" fill="#f79711" opacity="0.8"/>
<!-- Text -->
<text x="400" y="475" text-anchor="middle" font-size="28" fill="#ffffff" font-family="system-ui,sans-serif" opacity="0.95">7个早期预警信号</text>
</svg>
