<svg xmlns="http://www.w3.org/2000/svg" viewBox="0 0 800 500">
<defs>
<linearGradient id="bg" x1="0%" y1="0%" x2="100%" y2="100%">
<stop offset="0%" style="stop-color:#0f2027"/>
<stop offset="50%" style="stop-color:#203a43"/>
<stop offset="100%" style="stop-color:#2c5364"/>
</linearGradient>
<linearGradient id="accent" x1="0%" y1="0%" x2="100%" y2="0%">
<stop offset="0%" style="stop-color:#f79711"/>
<stop offset="100%" style="stop-color:#ffed4e"/>
</linearGradient>
</defs>
<rect width="800" height="500" fill="url(#bg)" rx="16"/>
<!-- Feather icon -->
<path d="M400,70 C480,110 510,200 500,310 C460,300 420,290 380,280 C400,220 380,150 340,110 C360,95 380,80 400,70 Z" fill="none" stroke="#f79711" stroke-width="4" opacity="0.9"/>
<path d="M400,75 Q440,180 480,290" fill="none" stroke="#ffed4e" stroke-width="2" opacity="0.7"/>
<path d="M380,120 Q410,190 440,260" fill="none" stroke="#ffed4e" stroke-width="2" opacity="0.5"/>
<!-- Seeds -->
<ellipse cx="250" cy="380" rx="14" ry="9" fill="#c9a84c" opacity="0.9" transform="rotate(-20 250 380)"/>
<ellipse cx="290" cy="400" rx="14" ry="9" fill="#c9a84c" opacity="0.8" transform="rotate(15 290 400)"/>
<ellipse cx="550" cy="380" rx="14" ry="9" fill="#c9a84c" opacity="0.9" transform="rotate(25 550 380)"/>
<ellipse cx="510" cy="400" rx="14" ry="9" fill="#c9a84c" opacity="0.8" transform="rotate(-15 510 400)"/>
<!-- Pigeon silhouette -->
<ellipse cx="400" cy="320" rx="48" ry="34" fill="#c9a84c" opacity="0.35"/>
<text x="400" y="460" text-anchor="middle" font-size="26" fill="#ffed4e" font-weight="bold" font-family="sans-serif">换羽期喂养</text>
</svg>
