<svg xmlns="http://www.w3.org/2000/svg" viewBox="0 0 800 500">
<defs>
<linearGradient id="bg3" x1="0%" y1="0%" x2="100%" y2="100%">
<stop offset="0%" style="stop-color:#1a5fa8"/>
<stop offset="100%" style="stop-color:#0d3356"/>
</linearGradient>
</defs>
<rect width="800" height="500" fill="url(#bg3)" rx="16"/>
<!-- Three pigeons -->
<!-- Racing pigeon (left) -->
<ellipse cx="200" cy="230" rx="60" ry="40" fill="#c9a84c" opacity="0.85"/>
<ellipse cx="258" cy="212" rx="32" ry="24" fill="#c9a84c" opacity="0.85"/>
<circle cx="278" cy="205" r="6" fill="#0d3356"/>
<path d="M290,210 Q305,215 298,224" fill="#c9a84c" opacity="0.8"/>
<path d="M180,265 Q140,310 115,295 Q135,280 165,268" fill="#c9a84c" opacity="0.7"/>
<path d="M220,265 Q260,310 285,295 Q265,280 235,268" fill="#c9a84c" opacity="0.7"/>
<path d="M175,250 Q200,245 220,250" stroke="#f79711" stroke-width="3" fill="none" opacity="0.8"/>
<!-- Meat pigeon (center, bigger) -->
<ellipse cx="400" cy="235" rx="75" ry="55" fill="#a0a0a0" opacity="0.8"/>
<ellipse cx="472" cy="212" rx="40" ry="30" fill="#a0a0a0" opacity="0.8"/>
<circle cx="500" cy="204" r="7" fill="#0d3356"/>
<path d="M512,210 Q528,215 520,225" fill="#a0a0a0" opacity="0.8"/>
<path d="M370,280 Q320,330 295,312 Q315,295 355,280" fill="#a0a0a0" opacity="0.7"/>
<path d="M430,280 Q480,330 505,312 Q485,295 445,280" fill="#a0a0a0" opacity="0.7"/>
<!-- Square pigeon / park pigeon (right, lighter) -->
<ellipse cx="600" cy="235" rx="65" ry="48" fill="#c0c0c0" opacity="0.7"/>
<ellipse cx="662" cy="215" rx="35" ry="26" fill="#c0c0c0" opacity="0.7"/>
<circle cx="688" cy="207" r="6" fill="#0d3356"/>
<path d="M697,213 Q712,218 705,227" fill="#c0c0c0" opacity="0.7"/>
<path d="M575,278 Q535,320 512,303 Q530,288 565,278" fill="#c0c0c0" opacity="0.65"/>
<path d="M625,278 Q668,320 692,303 Q672,288 637,278" fill="#c0c0c0" opacity="0.65"/>
<!-- Labels -->
<text x="200" y="380" text-anchor="middle" font-size="20" fill="#c9a84c" font-family="system-ui,sans-serif" font-weight="bold">信鸽</text>
<text x="200" y="405" text-anchor="middle" font-size="14" fill="#ffe082" font-family="system-ui,sans-serif">定向精准·速度快</text>
<text x="400" y="380" text-anchor="middle" font-size="20" fill="#cccccc" font-family="system-ui,sans-serif" font-weight="bold">肉鸽</text>
<text x="400" y="405" text-anchor="middle" font-size="14" fill="#ffe082" font-family="system-ui,sans-serif">体型大·飞行弱</text>
<text x="600" y="380" text-anchor="middle" font-size="20" fill="#cccccc" font-family="system-ui,sans-serif" font-weight="bold">广场鸽</text>
<text x="600" y="405" text-anchor="middle" font-size="14" fill="#ffe082" font-family="system-ui,sans-serif">亲人·不归巢</text>
<!-- Title -->
<text x="400" y="470" text-anchor="middle" font-size="26" fill="#ffffff" font-family="system-ui,sans-serif" opacity="0.95">三者有什么区别？</text>
</svg>
