<svg xmlns="http://www.w3.org/2000/svg" viewBox="0 0 800 500">
<defs>
<linearGradient id="bg2" x1="0%" y1="0%" x2="100%" y2="100%">
<stop offset="0%" style="stop-color:#c0392b"/>
<stop offset="100%" style="stop-color:#8e44ad"/>
</linearGradient>
</defs>
<rect width="800" height="500" fill="url(#bg2)" rx="16"/>
<!-- Nest -->
<ellipse cx="400" cy="310" rx="180" ry="50" fill="#5d4037" opacity="0.8"/>
<ellipse cx="400" cy="295" rx="150" ry="40" fill="#4e342e" opacity="0.7"/>
<!-- Straw lines -->
<line x1="230" y1="290" x2="350" y2="310" stroke="#8d6e63" stroke-width="3" opacity="0.5"/>
<line x1="260" y1="285" x2="370" y2="300" stroke="#8d6e63" stroke-width="3" opacity="0.5"/>
<line x1="450" y1="300" x2="570" y2="290" stroke="#8d6e63" stroke-width="3" opacity="0.5"/>
<!-- Eggs -->
<ellipse cx="355" cy="270" rx="38" ry="28" fill="#fffde7" opacity="0.95"/>
<ellipse cx="445" cy="268" rx="38" ry="28" fill="#fffde7" opacity="0.95"/>
<ellipse cx="400" cy="250" rx="36" ry="27" fill="#fffde7" opacity="0.95"/>
<!-- Heart above -->
<path d="M400,60 C370,30 330,50 330,80 C330,110 400,145 400,145 C400,145 470,110 470,80 C470,50 430,30 400,60 Z" fill="#ff6b6b" opacity="0.9"/>
<!-- Small decorative birds -->
<ellipse cx="100" cy="150" rx="22" ry="16" fill="#c9a84c" opacity="0.6"/>
<ellipse cx="128" cy="142" rx="12" ry="9" fill="#c9a84c" opacity="0.6"/>
<path d="M140,146 Q148,150 143,155" fill="#c9a84c" opacity="0.6"/>
<ellipse cx="700" cy="150" rx="22" ry="16" fill="#c9a84c" opacity="0.6"/>
<ellipse cx="728" cy="142" rx="12" ry="9" fill="#c9a84c" opacity="0.6"/>
<path d="M740,146 Q748,150 743,155" fill="#c9a84c" opacity="0.6"/>
<!-- Text -->
<text x="400" y="400" text-anchor="middle" font-size="30" fill="#ffffff" font-family="system-ui,sans-serif" opacity="0.95">孵化全攻略</text>
<text x="400" y="440" text-anchor="middle" font-size="18" fill="#ffe082" font-family="system-ui,sans-serif" opacity="0.8">从下蛋到幼鸽出壳</text>
</svg>
