<svg xmlns="http://www.w3.org/2000/svg" width="800" height="500" viewBox="0 0 800 500">
  <defs>
    <linearGradient id="bg" x1="0%" y1="0%" x2="100%" y2="100%">
      <stop offset="0%" style="stop-color:#1a3a5c"/>
      <stop offset="100%" style="stop-color:#0d2137"/>
    </linearGradient>
    <linearGradient id="accent" x1="0%" y1="0%" x2="100%" y2="0%">
      <stop offset="0%" style="stop-color:#c9a84c"/>
      <stop offset="100%" style="stop-color:#e8c84a"/>
    </linearGradient>
  </defs>
  <rect width="800" height="500" fill="url(#bg)"/>
  <rect x="60" y="420" width="100" height="4" rx="2" fill="url(#accent)"/>
  <text x="60" y="200" font-family="sans-serif" font-size="42" font-weight="bold" fill="#ffffff">
    <tspan x="60" dy="0">赛鸽分速怎么算？</tspan>
    <tspan x="60" dy="55" font-size="32" fill="#c9a84c">一篇文章讲透分速计算与行业标准</tspan>
  </text>
  <text x="60" y="350" font-family="sans-serif" font-size="16" fill="rgba(255,255,255,0.6)">分速公式 · 冠军分速标准 · 影响因素 · 查询工具</text>
  <text x="60" y="460" font-family="sans-serif" font-size="14" fill="rgba(255,255,255,0.4)">信鸽之家 · 技术交流</text>
  <path d="M680,100 Q720,80 700,130 Q680,180 640,140 Q620,100 660,90 Q680,80 680,100Z" fill="rgba(201,168,76,0.15)" transform="scale(2) translate(-340,-50)"/>
  <circle cx="700" cy="400" r="80" fill="rgba(201,168,76,0.08)"/>
  <line x1="620" y1="350" x2="660" y2="300" stroke="rgba(201,168,76,0.3)" stroke-width="2"/>
  <line x1="660" y1="300" x2="700" y2="280" stroke="rgba(201,168,76,0.2)" stroke-width="2"/>
  <circle cx="620" cy="350" r="4" fill="#c9a84c"/>
  <circle cx="660" cy="300" r="4" fill="#c9a84c"/>
  <circle cx="700" cy="280" r="4" fill="#c9a84c"/>
</svg>
